<?xml version="1.0" encoding="UTF-8" standalone="no"?>
<!DOCTYPE svg PUBLIC "-//W3C//DTD SVG 1.1//EN" "http://www.w3.org/Graphics/SVG/1.1/DTD/svg11.dtd">
<!-- Created with Vectornator (http://vectornator.io/) -->
<svg height="100%" stroke-miterlimit="10" style="fill-rule:nonzero;clip-rule:evenodd;stroke-linecap:round;stroke-linejoin:round;" version="1.1" viewBox="0 0 500 500" width="100%" xml:space="preserve" xmlns="http://www.w3.org/2000/svg" xmlns:vectornator="http://vectornator.io" xmlns:xlink="http://www.w3.org/1999/xlink">
<defs/>
<g id="Untitled" vectornator:layerName="Untitled">
<g opacity="1" vectornator:layerName="Background Complete">
<path d="M0 382.648L500 382.648L500 382.399L0 382.399L0 382.648Z" fill="#ececec" fill-rule="nonzero" opacity="1" stroke="none" vectornator:layerName="path"/>
<g opacity="1" vectornator:layerName="path">
<clipPath clip-rule="nonzero" id="ClipPath">
<path d="M0 0L500 0L500 500L0 500L0 0Z"/>
</clipPath>
<g clip-path="url(#ClipPath)">
<path d="M43.915 55.2021C40.905 55.2021 38.457 57.6511 38.457 60.6601L38.457 332.092C38.457 335.101 40.905 337.55 43.915 337.55L237.014 337.55C240.022 337.55 242.471 335.101 242.471 332.092L242.471 60.6601C242.471 57.6511 240.022 55.2021 237.014 55.2021L43.915 55.2021ZM237.014 337.8L43.915 337.8C40.768 337.8 38.207 335.239 38.207 332.092L38.207 60.6601C38.207 57.5141 40.768 54.9521 43.915 54.9521L237.014 54.9521C240.16 54.9521 242.721 57.5141 242.721 60.6601L242.721 332.092C242.721 335.239 240.16 337.8 237.014 337.8" fill="#ececec" fill-rule="nonzero" opacity="1" stroke="none" vectornator:layerName="path"/>
<path d="M260.212 55.2021C257.203 55.2021 254.755 57.6511 254.755 60.6601L254.755 332.092C254.755 335.101 257.203 337.55 260.212 337.55L453.311 337.55C456.32 337.55 458.769 335.101 458.769 332.092L458.769 60.6601C458.769 57.6511 456.32 55.2021 453.311 55.2021L260.212 55.2021ZM453.311 337.8L260.212 337.8C257.066 337.8 254.505 335.239 254.505 332.092L254.505 60.6601C254.505 57.5141 257.066 54.9521 260.212 54.9521L453.311 54.9521C456.458 54.9521 459.019 57.5141 459.019 60.6601L459.019 332.092C459.019 335.239 456.458 337.8 453.311 337.8" fill="#ececec" fill-rule="nonzero" opacity="1" stroke="none" vectornator:layerName="path"/>
<path d="M77.276 392.172L51.278 392.172L51.278 391.922L77.276 391.922L77.276 392.172Z" fill="#ececec" fill-rule="nonzero" opacity="1" stroke="none" vectornator:layerName="path"/>
<path d="M190.18 389.458L145.153 389.458L145.153 389.208L190.18 389.208L190.18 389.458Z" fill="#ececec" fill-rule="nonzero" opacity="1" stroke="none" vectornator:layerName="path"/>
<path d="M139.069 401.458L78.277 401.458L78.277 401.208L139.069 401.208L139.069 401.458Z" fill="#ececec" fill-rule="nonzero" opacity="1" stroke="none" vectornator:layerName="path"/>
<path d="M448.721 399.777L429.487 399.777L429.487 399.527L448.721 399.527L448.721 399.777Z" fill="#ececec" fill-rule="nonzero" opacity="1" stroke="none" vectornator:layerName="path"/>
<path d="M420.583 399.777L365.291 399.777L365.291 399.527L420.583 399.527L420.583 399.777Z" fill="#ececec" fill-rule="nonzero" opacity="1" stroke="none" vectornator:layerName="path"/>
<path d="M331.513 395.556L257.046 395.556L257.046 395.306L331.513 395.306L331.513 395.556Z" fill="#ececec" fill-rule="nonzero" opacity="1" stroke="none" vectornator:layerName="path"/>
<path d="M264.864 274.51L222.815 274.51L222.815 382.399L264.864 382.399L264.864 274.51Z" fill="#f0f0f0" fill-rule="nonzero" opacity="1" stroke="none" vectornator:layerName="path"/>
<path d="M72.351 274.51L222.815 274.51L222.815 382.399L72.351 382.399L72.351 274.51Z" fill="#f5f5f5" fill-rule="nonzero" opacity="1" stroke="none" vectornator:layerName="path"/>
<path d="M81.571 349.921L106.686 349.921L106.686 371.889L81.571 371.889L81.571 349.921Z" fill="#ffffff" fill-rule="nonzero" opacity="1" stroke="none" vectornator:layerName="path"/>
<path d="M81.571 319.889L106.686 319.889L106.686 341.857L81.571 341.857L81.571 319.889Z" fill="#ececec" fill-rule="nonzero" opacity="1" stroke="none" vectornator:layerName="path"/>
<g opacity="0.699997" vectornator:layerName="path">
<clipPath clip-rule="nonzero" id="ClipPath_2">
<path d="M71.9113 292.769L264.864 292.769L264.864 288.437L71.9113 288.437L71.9113 292.769Z"/>
</clipPath>
<g clip-path="url(#ClipPath_2)">
<path d="M264.864 288.437L71.911 288.437L71.911 292.77L264.864 292.77L264.864 288.437Z" fill="#e7e7e7" fill-rule="nonzero" opacity="1" stroke="none" vectornator:layerName="path"/>
</g>
</g>
<path d="M267.185 272.418L222.815 272.418L222.815 289.893L267.185 289.893L267.185 272.418Z" fill="#f0f0f0" fill-rule="nonzero" opacity="1" stroke="none" vectornator:layerName="path"/>
<path d="M70.03 272.418L222.815 272.418L222.815 289.893L70.03 289.893L70.03 272.418Z" fill="#f5f5f5" fill-rule="nonzero" opacity="1" stroke="none" vectornator:layerName="path"/>
<path d="M248.923 239.436L216.246 239.436L216.246 272.689L248.923 272.689L248.923 239.436Z" fill="#f0f0f0" fill-rule="nonzero" opacity="1" stroke="none" vectornator:layerName="path"/>
<path d="M102.458 239.436L216.246 239.436L216.246 272.689L102.458 272.689L102.458 239.436Z" fill="#f5f5f5" fill-rule="nonzero" opacity="1" stroke="none" vectornator:layerName="path"/>
<g opacity="0.699997" vectornator:layerName="path">
<clipPath clip-rule="nonzero" id="ClipPath_3">
<path d="M102.117 247.135L248.923 247.135L248.923 244.449L102.117 244.449L102.117 247.135Z"/>
</clipPath>
<g clip-path="url(#ClipPath_3)">
<path d="M248.923 244.449L102.117 244.449L102.117 247.136L248.923 247.136L248.923 244.449Z" fill="#e7e7e7" fill-rule="nonzero" opacity="1" stroke="none" vectornator:layerName="path"/>
</g>
</g>
<path d="M250.727 237.811L216.247 237.811L216.247 245.581L250.727 245.581L250.727 237.811Z" fill="#f0f0f0" fill-rule="nonzero" opacity="1" stroke="none" vectornator:layerName="path"/>
<path d="M100.655 237.811L216.246 237.811L216.246 245.581L100.655 245.581L100.655 237.811Z" fill="#f5f5f5" fill-rule="nonzero" opacity="1" stroke="none" vectornator:layerName="path"/>
<path d="M287.409 382.398L319.4 382.398L319.4 220.522L287.409 220.522L287.409 382.398Z" fill="#e7e7e7" fill-rule="nonzero" opacity="1" stroke="none" vectornator:layerName="path"/>
<path d="M294.258 382.398L287.408 382.398L287.408 370.919L301.44 370.919L294.258 382.398Z" fill="#f0f0f0" fill-rule="nonzero" opacity="1" stroke="none" vectornator:layerName="path"/>
<path d="M394.123 382.398L426.115 382.398L426.115 220.522L394.123 220.522L394.123 382.398Z" fill="#e7e7e7" fill-rule="nonzero" opacity="1" stroke="none" vectornator:layerName="path"/>
<path d="M287.409 380.08L400.101 380.08L400.101 220.522L287.409 220.522L287.409 380.08Z" fill="#f0f0f0" fill-rule="nonzero" opacity="1" stroke="none" vectornator:layerName="path"/>
<path d="M292.722 271.352L394.787 271.352L394.787 227.595L292.722 227.595L292.722 271.352Z" fill="#e7e7e7" fill-rule="nonzero" opacity="1" stroke="none" vectornator:layerName="path"/>
<path d="M350.463 248.541C350.463 252.246 347.46 255.249 343.755 255.249C340.05 255.249 337.047 252.246 337.047 248.541C337.047 244.837 340.05 241.833 343.755 241.833C347.46 241.833 350.463 244.837 350.463 248.541" fill="#fafafa" fill-rule="nonzero" opacity="1" stroke="none" vectornator:layerName="path"/>
<path d="M393.251 382.398L400.101 382.398L400.101 370.919L386.069 370.919L393.251 382.398Z" fill="#f0f0f0" fill-rule="nonzero" opacity="1" stroke="none" vectornator:layerName="path"/>
<path d="M292.722 373.009L394.787 373.009L394.787 278.423L292.722 278.423L292.722 373.009Z" fill="#e7e7e7" fill-rule="nonzero" opacity="1" stroke="none" vectornator:layerName="path"/>
<path d="M387.398 292.52C387.398 296.225 384.395 299.228 380.69 299.228C376.985 299.228 373.982 296.225 373.982 292.52C373.982 288.816 376.985 285.812 380.69 285.812C384.395 285.812 387.398 288.816 387.398 292.52" fill="#fafafa" fill-rule="nonzero" opacity="1" stroke="none" vectornator:layerName="path"/>
<path d="M415.248 71.525L86.206 71.525L86.206 202.503L415.248 202.503L415.248 71.525Z" fill="#e7e7e7" fill-rule="nonzero" opacity="1" stroke="none" vectornator:layerName="path"/>
<path d="M413.794 71.525L84.752 71.525L84.752 202.503L413.794 202.503L413.794 71.525Z" fill="#f0f0f0" fill-rule="nonzero" opacity="1" stroke="none" vectornator:layerName="path"/>
<path d="M405.421 79.898L93.126 79.898L93.126 194.128L405.421 194.128L405.421 79.898Z" fill="#ffffff" fill-rule="nonzero" opacity="1" stroke="none" vectornator:layerName="path"/>
<path d="M129.544 127.497L118.555 146.53L140.533 146.53L129.544 127.497Z" fill="#e7e7e7" fill-rule="nonzero" opacity="1" stroke="none" vectornator:layerName="path"/>
<path d="M186.552 128.041L168.607 128.041L168.607 145.986L186.552 145.986L186.552 128.041Z" fill="#e7e7e7" fill-rule="nonzero" opacity="1" stroke="none" vectornator:layerName="path"/>
<path d="M225.615 125.537L213.547 134.305L218.157 148.491L233.073 148.491L237.683 134.305L225.615 125.537Z" fill="#e7e7e7" fill-rule="nonzero" opacity="1" stroke="none" vectornator:layerName="path"/>
<path d="M279.995 126.025L267.306 126.025L260.962 137.013L267.306 148.003L279.995 148.003L286.339 137.013L279.995 126.025Z" fill="#e7e7e7" fill-rule="nonzero" opacity="1" stroke="none" vectornator:layerName="path"/>
<path d="M321.686 124.953L311.766 129.73L309.315 140.466L316.181 149.074L327.191 149.074L334.057 140.466L331.606 129.73L321.686 124.953Z" fill="#e7e7e7" fill-rule="nonzero" opacity="1" stroke="none" vectornator:layerName="path"/>
<path d="M374.578 125.291L364.866 125.291L357.999 132.158L357.999 141.869L364.866 148.736L374.578 148.736L381.445 141.869L381.445 132.158L374.578 125.291Z" fill="#e7e7e7" fill-rule="nonzero" opacity="1" stroke="none" vectornator:layerName="path"/>
</g>
</g>
<g opacity="1" vectornator:layerName="path">
<clipPath clip-rule="nonzero" id="ClipPath_4">
<path d="M0 0L500 0L500 500L0 500L0 0Z"/>
</clipPath>
<g clip-path="url(#ClipPath_4)">
<path d="M443.889 416.238C443.889 422.492 357.082 427.561 250 427.561C142.918 427.561 56.1112 422.492 56.1112 416.238C56.1112 409.984 142.918 404.915 250 404.915C357.082 404.915 443.889 409.984 443.889 416.238" fill="#f5f5f5" fill-rule="nonzero" opacity="1" stroke="none" vectornator:layerName="path"/>
</g>
</g>
<g opacity="1" vectornator:layerName="path">
<clipPath clip-rule="nonzero" id="ClipPath_5">
<path d="M0 0L500 0L500 500L0 500L0 0Z"/>
</clipPath>
<g clip-path="url(#ClipPath_5)">
<path d="M239.408 129.506L404.061 129.506C407.575 129.506 410.27 132.38 410.052 135.893L396.629 352.224C396.411 355.736 393.358 358.611 389.845 358.611L225.192 358.611C221.679 358.611 218.983 355.736 219.2 352.224L232.624 135.893C232.842 132.38 235.895 129.506 239.408 129.506" fill="#027cff" fill-rule="nonzero" opacity="1" stroke="none" vectornator:layerName="path"/>
<g opacity="0.399994" vectornator:layerName="path">
<clipPath clip-rule="nonzero" id="ClipPath_6">
<path d="M219.189 358.611L410.065 358.611L410.065 129.506L219.189 129.506L219.189 358.611Z"/>
</clipPath>
<g clip-path="url(#ClipPath_6)">
<path d="M239.408 129.506L404.061 129.506C407.575 129.506 410.27 132.38 410.052 135.893L396.629 352.224C396.411 355.736 393.358 358.611 389.845 358.611L225.192 358.611C221.679 358.611 218.983 355.736 219.2 352.224L232.624 135.893C232.842 132.38 235.895 129.506 239.408 129.506" fill="#000000" fill-rule="nonzero" opacity="1" stroke="none" vectornator:layerName="path"/>
</g>
</g>
<path d="M235.626 129.506L400.28 129.506C403.793 129.506 406.488 132.38 406.271 135.893L392.847 352.224C392.629 355.736 389.576 358.611 386.063 358.611L221.41 358.611C217.897 358.611 215.201 355.736 215.419 352.224L228.843 135.893C229.061 132.38 232.113 129.506 235.626 129.506" fill="#bbbbbb" fill-rule="nonzero" opacity="1" stroke="none" vectornator:layerName="path"/>
<g opacity="0.399994" vectornator:layerName="path">
<clipPath clip-rule="nonzero" id="ClipPath_7">
<path d="M224.343 348.852L397.606 348.852L397.606 139.331L224.343 139.331L224.343 348.852Z"/>
</clipPath>
<g clip-path="url(#ClipPath_7)">
<path d="M224.343 346.931L384.605 348.853L397.606 139.331L237.225 139.331L224.343 346.931Z" fill="#000000" fill-rule="nonzero" opacity="1" stroke="none" vectornator:layerName="path"/>
</g>
</g>
<path d="M219.661 344.81L381.959 344.81C390.904 262.904 393.648 218.685 394.868 136.779L232.569 136.779C231.349 218.685 228.606 262.904 219.661 344.81" fill="#ffffff" fill-rule="nonzero" opacity="1" stroke="none" vectornator:layerName="path"/>
<g opacity="0.300003" vectornator:layerName="path">
<clipPath clip-rule="nonzero" id="ClipPath_8">
<path d="M345.477 193.753L379.283 193.753L379.283 161.682L345.477 161.682L345.477 193.753Z"/>
</clipPath>
<g clip-path="url(#ClipPath_8)">
<path d="M349.735 189.626L373.546 189.626L375.024 165.809L351.214 165.809L349.735 189.626ZM375.485 193.753L347.54 193.753C346.97 193.753 346.426 193.518 346.037 193.103C345.646 192.688 345.445 192.13 345.48 191.562L347.214 163.617C347.283 162.529 348.184 161.682 349.274 161.682L377.219 161.682C377.789 161.682 378.333 161.917 378.722 162.332C379.113 162.747 379.314 163.305 379.279 163.873L377.545 191.817C377.476 192.905 376.575 193.753 375.485 193.753" fill="#027cff" fill-rule="nonzero" opacity="1" stroke="none" vectornator:layerName="path"/>
</g>
</g>
<g opacity="0.300003" vectornator:layerName="path">
<clipPath clip-rule="nonzero" id="ClipPath_9">
<path d="M342.836 236.319L376.642 236.319L376.642 204.247L342.836 204.247L342.836 236.319Z"/>
</clipPath>
<g clip-path="url(#ClipPath_9)">
<path d="M347.095 232.192L370.905 232.192L372.383 208.374L348.573 208.374L347.095 232.192ZM372.844 236.319L344.9 236.319C344.33 236.319 343.786 236.084 343.397 235.669C343.006 235.254 342.805 234.696 342.84 234.128L344.574 206.182C344.642 205.094 345.543 204.247 346.633 204.247L374.578 204.247C375.148 204.247 375.692 204.482 376.081 204.897C376.472 205.312 376.673 205.87 376.638 206.438L374.904 234.383C374.835 235.471 373.934 236.319 372.844 236.319" fill="#027cff" fill-rule="nonzero" opacity="1" stroke="none" vectornator:layerName="path"/>
</g>
</g>
<g opacity="0.300003" vectornator:layerName="path">
<clipPath clip-rule="nonzero" id="ClipPath_10">
<path d="M340.194 278.885L374 278.885L374 246.813L340.194 246.813L340.194 278.885Z"/>
</clipPath>
<g clip-path="url(#ClipPath_10)">
<path d="M344.453 274.758L368.264 274.758L369.741 250.94L345.932 250.94L344.453 274.758ZM370.203 278.885L342.258 278.885C341.688 278.885 341.144 278.65 340.755 278.235C340.364 277.82 340.163 277.262 340.198 276.694L341.932 248.748C342.001 247.66 342.902 246.813 343.992 246.813L371.936 246.813C372.506 246.813 373.05 247.048 373.439 247.463C373.83 247.878 374.031 248.436 373.996 249.004L372.263 276.949C372.194 278.037 371.293 278.885 370.203 278.885" fill="#027cff" fill-rule="nonzero" opacity="1" stroke="none" vectornator:layerName="path"/>
</g>
</g>
<g opacity="0.300003" vectornator:layerName="path">
<clipPath clip-rule="nonzero" id="ClipPath_11">
<path d="M337.554 321.45L371.359 321.45L371.359 289.378L337.554 289.378L337.554 321.45Z"/>
</clipPath>
<g clip-path="url(#ClipPath_11)">
<path d="M341.812 317.323L365.623 317.323L367.101 293.505L343.291 293.505L341.812 317.323ZM367.562 321.45L339.618 321.45C339.048 321.45 338.503 321.215 338.115 320.8C337.724 320.385 337.522 319.827 337.558 319.259L339.291 291.313C339.36 290.225 340.26 289.378 341.351 289.378L369.296 289.378C369.865 289.378 370.409 289.613 370.798 290.028C371.19 290.443 371.39 291.001 371.356 291.569L369.622 319.514C369.553 320.602 368.651 321.45 367.562 321.45" fill="#027cff" fill-rule="nonzero" opacity="1" stroke="none" vectornator:layerName="path"/>
</g>
</g>
<g opacity="0.300003" vectornator:layerName="path">
<clipPath clip-rule="nonzero" id="ClipPath_12">
<path d="M256.599 174.062L326.887 174.062L326.887 167.076L256.599 167.076L256.599 174.062Z"/>
</clipPath>
<g clip-path="url(#ClipPath_12)">
<path d="M259.882 174.062L323.171 174.062C325.092 174.062 326.761 172.49 326.881 170.57C327 168.649 325.526 167.077 323.604 167.077L260.316 167.077C258.394 167.077 256.725 168.649 256.606 170.57C256.486 172.49 257.961 174.062 259.882 174.062" fill="#027cff" fill-rule="nonzero" opacity="1" stroke="none" vectornator:layerName="path"/>
</g>
</g>
<g opacity="0.300003" vectornator:layerName="path">
<clipPath clip-rule="nonzero" id="ClipPath_13">
<path d="M267.747 188.359L326 188.359L326 181.373L267.747 181.373L267.747 188.359Z"/>
</clipPath>
<g clip-path="url(#ClipPath_13)">
<path d="M271.03 188.358L322.284 188.358C324.205 188.358 325.874 186.787 325.993 184.865C326.113 182.944 324.638 181.373 322.717 181.373L271.464 181.373C269.542 181.373 267.873 182.944 267.754 184.865C267.634 186.787 269.109 188.358 271.03 188.358" fill="#027cff" fill-rule="nonzero" opacity="1" stroke="none" vectornator:layerName="path"/>
</g>
</g>
<g opacity="0.300003" vectornator:layerName="path">
<clipPath clip-rule="nonzero" id="ClipPath_14">
<path d="M253.07 230.924L323.359 230.924L323.359 223.938L253.07 223.938L253.07 230.924Z"/>
</clipPath>
<g clip-path="url(#ClipPath_14)">
<path d="M256.787 223.939L320.076 223.939C321.997 223.939 323.471 225.51 323.352 227.431C323.233 229.353 321.563 230.924 319.642 230.924L256.353 230.924C254.433 230.924 252.958 229.353 253.077 227.431C253.196 225.51 254.866 223.939 256.787 223.939" fill="#027cff" fill-rule="nonzero" opacity="1" stroke="none" vectornator:layerName="path"/>
</g>
</g>
<g opacity="0.300003" vectornator:layerName="path">
<clipPath clip-rule="nonzero" id="ClipPath_15">
<path d="M265.992 216.628L324.246 216.628L324.246 209.642L265.992 209.642L265.992 216.628Z"/>
</clipPath>
<g clip-path="url(#ClipPath_15)">
<path d="M269.709 209.642L320.963 209.642C322.884 209.642 324.358 211.214 324.239 213.135C324.12 215.056 322.451 216.628 320.529 216.628L269.275 216.628C267.355 216.628 265.88 215.056 265.999 213.135C266.118 211.214 267.788 209.642 269.709 209.642" fill="#027cff" fill-rule="nonzero" opacity="1" stroke="none" vectornator:layerName="path"/>
</g>
</g>
<g opacity="0.300003" vectornator:layerName="path">
<clipPath clip-rule="nonzero" id="ClipPath_16">
<path d="M251.316 259.193L321.605 259.193L321.605 252.207L251.316 252.207L251.316 259.193Z"/>
</clipPath>
<g clip-path="url(#ClipPath_16)">
<path d="M254.6 259.193L317.889 259.193C319.809 259.193 321.479 257.621 321.599 255.7C321.718 253.779 320.243 252.207 318.322 252.207L255.034 252.207C253.112 252.207 251.443 253.779 251.324 255.7C251.204 257.621 252.679 259.193 254.6 259.193" fill="#027cff" fill-rule="nonzero" opacity="1" stroke="none" vectornator:layerName="path"/>
</g>
</g>
<g opacity="0.300003" vectornator:layerName="path">
<clipPath clip-rule="nonzero" id="ClipPath_17">
<path d="M288.253 273.49L320.718 273.49L320.718 266.503L288.253 266.503L288.253 273.49Z"/>
</clipPath>
<g clip-path="url(#ClipPath_17)">
<path d="M291.536 273.489L317.001 273.489C318.922 273.489 320.592 271.918 320.711 269.997C320.83 268.075 319.355 266.504 317.434 266.504L291.97 266.504C290.048 266.504 288.379 268.075 288.26 269.997C288.14 271.918 289.615 273.489 291.536 273.489" fill="#027cff" fill-rule="nonzero" opacity="1" stroke="none" vectornator:layerName="path"/>
</g>
</g>
<g opacity="0.300003" vectornator:layerName="path">
<clipPath clip-rule="nonzero" id="ClipPath_18">
<path d="M262.464 273.49L282.894 273.49L282.894 266.503L262.464 266.503L262.464 273.49Z"/>
</clipPath>
<g clip-path="url(#ClipPath_18)">
<path d="M265.747 273.489L279.177 273.489C281.099 273.489 282.768 271.918 282.887 269.997C283.006 268.075 281.532 266.504 279.611 266.504L266.181 266.504C264.259 266.504 262.59 268.075 262.471 269.997C262.351 271.918 263.826 273.489 265.747 273.489" fill="#027cff" fill-rule="nonzero" opacity="1" stroke="none" vectornator:layerName="path"/>
</g>
</g>
<g opacity="0.300003" vectornator:layerName="path">
<clipPath clip-rule="nonzero" id="ClipPath_19">
<path d="M248.675 301.759L318.964 301.759L318.964 294.772L248.675 294.772L248.675 301.759Z"/>
</clipPath>
<g clip-path="url(#ClipPath_19)">
<path d="M251.958 301.759L315.247 301.759C317.167 301.759 318.837 300.187 318.957 298.266C319.076 296.345 317.601 294.773 315.68 294.773L252.391 294.773C250.47 294.773 248.801 296.345 248.682 298.266C248.562 300.187 250.037 301.759 251.958 301.759" fill="#027cff" fill-rule="nonzero" opacity="1" stroke="none" vectornator:layerName="path"/>
</g>
</g>
<g opacity="0.300003" vectornator:layerName="path">
<clipPath clip-rule="nonzero" id="ClipPath_20">
<path d="M259.823 316.055L318.076 316.055L318.076 309.069L259.823 309.069L259.823 316.055Z"/>
</clipPath>
<g clip-path="url(#ClipPath_20)">
<path d="M263.106 316.056L314.36 316.056C316.281 316.056 317.95 314.484 318.07 312.562C318.189 310.641 316.714 309.07 314.794 309.07L263.54 309.07C261.618 309.07 259.949 310.641 259.83 312.562C259.71 314.484 261.185 316.056 263.106 316.056" fill="#027cff" fill-rule="nonzero" opacity="1" stroke="none" vectornator:layerName="path"/>
</g>
</g>
<path d="M360.113 186.104C359.712 186.104 359.306 185.987 358.951 185.744L348.183 178.388C347.243 177.746 347.001 176.462 347.644 175.521C348.286 174.581 349.567 174.337 350.511 174.982L359.711 181.266C363.068 177.215 372.651 166.23 380.621 162.676C381.657 162.213 382.881 162.679 383.345 163.721C383.809 164.761 383.342 165.982 382.3 166.446C373.599 170.324 361.854 185.167 361.736 185.316C361.331 185.832 360.726 186.104 360.113 186.104" fill="#027cff" fill-rule="nonzero" opacity="1" stroke="none" vectornator:layerName="path"/>
<path d="M355.097 227.844C354.58 227.844 354.065 227.651 353.665 227.266L344.292 218.231C343.472 217.44 343.448 216.134 344.239 215.314C345.031 214.493 346.336 214.471 347.156 215.26L355.135 222.951C359.08 219.423 370.152 210.017 378.493 207.736C379.591 207.434 380.726 208.083 381.027 209.182C381.327 210.281 380.68 211.415 379.58 211.716C370.458 214.21 356.651 227.152 356.512 227.282C356.115 227.657 355.606 227.844 355.097 227.844" fill="#027cff" fill-rule="nonzero" opacity="1" stroke="none" vectornator:layerName="path"/>
<g opacity="0.399994" vectornator:layerName="path">
<clipPath clip-rule="nonzero" id="ClipPath_21">
<path d="M336.961 141.765L346.825 141.765L346.825 129.506L336.961 129.506L336.961 141.765Z"/>
</clipPath>
<g clip-path="url(#ClipPath_21)">
<path d="M337.57 141.734L340.614 141.764C343.986 141.797 346.763 139.068 346.787 135.699L346.825 130.124C346.828 129.777 346.558 129.505 346.211 129.505L337.733 129.505C337.358 129.505 337.04 129.821 337.038 130.195L336.962 141.117C336.959 141.461 337.225 141.731 337.57 141.734" fill="#000000" fill-rule="nonzero" opacity="1" stroke="none" vectornator:layerName="path"/>
</g>
</g>
<path d="M291.55 119.388L342.613 119.388C345.78 119.388 348.022 121.98 347.594 125.148L346.058 136.525C345.631 139.693 342.689 142.284 339.521 142.284L288.459 142.284C285.291 142.284 283.05 139.693 283.477 136.525L285.013 125.148C285.441 121.98 288.383 119.388 291.55 119.388" fill="#fddf19" fill-rule="nonzero" opacity="1" stroke="none" vectornator:layerName="path"/>
<g opacity="0.600006" vectornator:layerName="path">
<clipPath clip-rule="nonzero" id="ClipPath_22">
<path d="M283.425 142.284L347.647 142.284L347.647 119.388L283.425 119.388L283.425 142.284Z"/>
</clipPath>
<g clip-path="url(#ClipPath_22)">
<path d="M291.55 119.388L342.613 119.388C345.78 119.388 348.022 121.98 347.594 125.148L346.058 136.525C345.631 139.693 342.689 142.284 339.521 142.284L288.459 142.284C285.291 142.284 283.05 139.693 283.477 136.525L285.013 125.148C285.441 121.98 288.383 119.388 291.55 119.388" fill="#ffffff" fill-rule="nonzero" opacity="1" stroke="none" vectornator:layerName="path"/>
</g>
</g>
<g opacity="0.5" vectornator:layerName="path">
<clipPath clip-rule="nonzero" id="ClipPath_23">
<path d="M316.788 124.89L342.834 124.89L342.834 121.796L316.788 121.796L316.788 124.89Z"/>
</clipPath>
<g clip-path="url(#ClipPath_23)">
<path d="M341.287 124.89L318.335 124.89C317.48 124.89 316.788 124.198 316.788 123.343C316.788 122.489 317.48 121.796 318.335 121.796L341.287 121.796C342.141 121.796 342.834 122.489 342.834 123.343C342.834 124.198 342.141 124.89 341.287 124.89" fill="#ffffff" fill-rule="nonzero" opacity="1" stroke="none" vectornator:layerName="path"/>
</g>
</g>
<g opacity="0.5" vectornator:layerName="path">
<clipPath clip-rule="nonzero" id="ClipPath_24">
<path d="M306.673 124.89L312.189 124.89L312.189 121.796L306.673 121.796L306.673 124.89Z"/>
</clipPath>
<g clip-path="url(#ClipPath_24)">
<path d="M310.642 124.89L308.22 124.89C307.366 124.89 306.673 124.198 306.673 123.343C306.673 122.489 307.366 121.796 308.22 121.796L310.642 121.796C311.496 121.796 312.189 122.489 312.189 123.343C312.189 124.198 311.496 124.89 310.642 124.89" fill="#ffffff" fill-rule="nonzero" opacity="1" stroke="none" vectornator:layerName="path"/>
</g>
</g>
</g>
</g>
<path d="M169.461 346.654L179.331 348.537L202.662 238.815L188.171 236.05L169.461 346.654Z" fill="#f5891d" fill-rule="nonzero" opacity="1" stroke="none" vectornator:layerName="path"/>
<path d="M204.152 162.637L215.968 158.755L216.787 154.462L205.776 154.123L204.152 162.637Z" fill="#182e35" fill-rule="nonzero" opacity="1" stroke="none" vectornator:layerName="path"/>
<path d="M203.855 160.139L217.314 155.762L203.482 234.524L188.991 231.759L203.855 160.139Z" fill="#f5891d" fill-rule="nonzero" opacity="1" stroke="none" vectornator:layerName="path"/>
<path d="M188.761 236.163L202.074 238.703L202.893 234.411L189.58 231.871L188.761 236.163Z" fill="#182e35" fill-rule="nonzero" opacity="1" stroke="none" vectornator:layerName="path"/>
<g opacity="1" vectornator:layerName="path">
<clipPath clip-rule="nonzero" id="ClipPath_25">
<path d="M0 0L500 0L500 500L0 500L0 0Z"/>
</clipPath>
<g clip-path="url(#ClipPath_25)">
<path d="M171.236 359.641C171.111 360.291 171.383 360.89 171.843 360.977C172.303 361.065 172.776 360.609 172.9 359.958C173.024 359.308 172.752 358.71 172.293 358.622C171.833 358.535 171.36 358.991 171.236 359.641" fill="#027cff" fill-rule="nonzero" opacity="1" stroke="none" vectornator:layerName="path"/>
<path d="M170.56 359.723L173.498 360.285L179.331 348.537L169.462 346.655L170.56 359.723Z" fill="#182e35" fill-rule="nonzero" opacity="1" stroke="none" vectornator:layerName="path"/>
<path d="M188.339 211.817C188.163 211.817 187.984 211.779 187.814 211.7C187.191 211.41 186.922 210.669 187.212 210.046C193.408 196.761 198.44 169.003 199.116 162.401C199.315 160.454 200.558 158.761 202.359 157.986L205.629 156.577C206.261 156.304 206.993 156.594 207.265 157.226C207.537 157.858 207.246 158.59 206.614 158.862L203.343 160.272C202.371 160.691 201.7 161.604 201.592 162.655C200.882 169.588 195.885 197.338 189.468 211.098C189.257 211.55 188.808 211.817 188.339 211.817" fill="#182e35" fill-rule="nonzero" opacity="1" stroke="none" vectornator:layerName="path"/>
<path d="M142.273 158.792C139.781 163.058 137.263 167.586 134.901 172.028C133.728 174.267 132.592 176.514 131.496 178.765C130.443 181.023 129.392 183.281 128.492 185.544L128.322 185.954C128.323 185.96 128.307 185.937 128.301 185.964C128.279 185.987 128.252 186.064 128.229 186.174C128.177 186.391 128.157 186.741 128.162 187.152C128.173 187.981 128.337 189.022 128.584 190.088C129.101 192.236 129.864 194.558 130.78 196.846C131.67 199.153 132.692 201.465 133.751 203.777C134.786 206.094 135.945 208.424 137.044 210.68L132.294 213.924C128.755 209.771 125.634 205.459 122.877 200.655C121.533 198.236 120.23 195.744 119.233 192.89C118.736 191.455 118.287 189.944 118.032 188.174C117.905 187.286 117.847 186.325 117.913 185.242C117.949 184.701 118.016 184.131 118.151 183.52C118.206 183.227 118.308 182.896 118.396 182.588L118.557 182.077C120.195 176.744 122.296 171.734 124.614 166.865C126.962 161.985 129.473 157.349 132.399 152.684L142.273 158.792Z" fill="#ffc4be" fill-rule="nonzero" opacity="1" stroke="none" vectornator:layerName="path"/>
<path d="M136.351 209.251L140.817 212.73L133.993 218.366C133.993 218.366 130.878 215.355 131.359 211.676L136.351 209.251Z" fill="#ffc4be" fill-rule="nonzero" opacity="1" stroke="none" vectornator:layerName="path"/>
<path d="M142.638 217.81L138.092 223.661L133.993 218.367L140.817 212.73L142.638 217.81Z" fill="#ffc4be" fill-rule="nonzero" opacity="1" stroke="none" vectornator:layerName="path"/>
<path d="M168.042 117.108C168.165 117.713 168.585 118.138 168.981 118.058C169.377 117.978 169.598 117.421 169.475 116.816C169.352 116.211 168.932 115.785 168.536 115.866C168.14 115.946 167.919 116.503 168.042 117.108" fill="#182e35" fill-rule="nonzero" opacity="1" stroke="none" vectornator:layerName="path"/>
<path d="M168.53 118.15C168.53 118.15 170.617 121.363 172.475 122.741C171.607 123.958 169.693 123.871 169.693 123.871L168.53 118.15Z" fill="#fe857f" fill-rule="nonzero" opacity="1" stroke="none" vectornator:layerName="path"/>
<path d="M165.142 114.196C165.054 114.196 164.965 114.165 164.895 114.1C164.748 113.964 164.739 113.734 164.876 113.587C166.238 112.113 167.892 112.375 167.963 112.386C168.16 112.42 168.293 112.607 168.259 112.805C168.225 113.002 168.036 113.134 167.842 113.102C167.788 113.093 166.496 112.904 165.408 114.08C165.337 114.157 165.24 114.196 165.142 114.196" fill="#182e35" fill-rule="nonzero" opacity="1" stroke="none" vectornator:layerName="path"/>
<path d="M150.795 125.624C151.894 131.228 152.99 141.496 149.069 145.235C149.069 145.235 150.601 150.92 161.014 150.92C172.463 150.92 166.486 145.235 166.486 145.235C160.237 143.743 160.398 139.107 161.486 134.753L150.795 125.624Z" fill="#ffc4be" fill-rule="nonzero" opacity="1" stroke="none" vectornator:layerName="path"/>
<path d="M146.855 145.656C146.022 143.678 147.806 137.68 149.704 137.093C151.793 136.447 159.733 136.808 163.674 138.457C166.477 141.297 167.286 147.194 167.286 147.194L146.855 145.656Z" fill="#182e35" fill-rule="nonzero" opacity="1" stroke="none" vectornator:layerName="path"/>
<path d="M115.394 406.301C115.472 406.318 115.543 406.341 115.607 406.371C115.751 406.44 115.841 406.541 115.883 406.681C115.979 407.007 115.859 407.111 115.819 407.144C115.407 407.494 113.877 407.171 112.8 406.74C113.531 406.483 114.713 406.154 115.394 406.301M114.147 407.525C114.916 407.692 115.685 407.735 116.054 407.42C116.209 407.288 116.366 407.034 116.23 406.577C116.159 406.337 116.001 406.157 115.763 406.043C114.729 405.55 112.352 406.519 112.251 406.56C112.185 406.587 112.141 406.651 112.139 406.723C112.137 406.794 112.177 406.861 112.241 406.891C112.605 407.067 113.375 407.358 114.147 407.525" fill="#027cff" fill-rule="nonzero" opacity="1" stroke="none" vectornator:layerName="path"/>
<path d="M114.45 404.197C114.476 404.203 114.503 404.21 114.53 404.219C114.754 404.298 114.751 404.407 114.749 404.455C114.737 404.968 113.514 406.001 112.617 406.419C112.842 405.806 113.353 404.599 114.009 404.264C114.159 404.187 114.304 404.165 114.45 404.197M112.282 406.905C112.311 406.911 112.342 406.91 112.371 406.901C113.237 406.648 115.09 405.333 115.113 404.464C115.117 404.306 115.062 404.02 114.649 403.877C114.38 403.783 114.111 403.805 113.845 403.941C112.821 404.464 112.174 406.585 112.147 406.676C112.128 406.739 112.145 406.808 112.192 406.855C112.217 406.881 112.248 406.897 112.282 406.905" fill="#027cff" fill-rule="nonzero" opacity="1" stroke="none" vectornator:layerName="path"/>
<path d="M170.658 407.324C170.785 407.324 170.904 407.337 171.009 407.366C171.176 407.411 171.292 407.494 171.364 407.619C171.492 407.845 171.446 407.957 171.399 408.02C171.043 408.515 169.107 408.527 167.682 408.326C168.393 407.961 169.763 407.324 170.658 407.324M169.443 408.809C170.426 408.809 171.376 408.675 171.694 408.232C171.805 408.078 171.893 407.815 171.679 407.439C171.559 407.229 171.365 407.087 171.104 407.015C169.829 406.669 167.152 408.194 167.038 408.26C166.973 408.297 166.938 408.371 166.95 408.446C166.962 408.52 167.02 408.58 167.094 408.595C167.582 408.692 168.527 408.809 169.443 408.809" fill="#027cff" fill-rule="nonzero" opacity="1" stroke="none" vectornator:layerName="path"/>
<path d="M168.999 405.493C169.034 405.493 169.071 405.495 169.108 405.498C169.434 405.531 169.455 405.66 169.461 405.702C169.545 406.222 168.301 407.524 167.358 408.091C167.456 407.488 167.729 406.254 168.369 405.728C168.562 405.57 168.769 405.493 168.999 405.493M167.13 408.598C167.155 408.598 167.18 408.593 167.204 408.582C168.129 408.167 169.96 406.511 169.82 405.644C169.787 405.441 169.643 405.188 169.145 405.138C168.772 405.099 168.436 405.205 168.138 405.448C167.164 406.249 166.957 408.312 166.949 408.399C166.943 408.464 166.971 408.526 167.024 408.564C167.055 408.587 167.093 408.598 167.13 408.598" fill="#027cff" fill-rule="nonzero" opacity="1" stroke="none" vectornator:layerName="path"/>
<path d="M158.706 408.417L166.366 408.417L167.129 390.678L159.469 390.678L158.706 408.417Z" fill="#ffc4be" fill-rule="nonzero" opacity="1" stroke="none" vectornator:layerName="path"/>
<path d="M103.426 404.87L111.117 406.491L116.545 389.969L108.853 388.348L103.426 404.87Z" fill="#ffc4be" fill-rule="nonzero" opacity="1" stroke="none" vectornator:layerName="path"/>
<path d="M111.949 405.739L103.538 403.919C103.232 403.852 102.921 404.008 102.79 404.292L99.8702 410.627C99.5682 411.283 99.9692 412.054 100.678 412.195C103.626 412.78 105.09 412.917 108.788 413.718C111.064 414.211 116.201 415.462 119.343 416.142C122.417 416.807 123.569 413.804 122.343 413.244C116.848 410.733 114.552 408.523 113.065 406.463C112.797 406.092 112.397 405.837 111.949 405.739" fill="#182e35" fill-rule="nonzero" opacity="1" stroke="none" vectornator:layerName="path"/>
<path d="M166.316 407.53L157.951 407.53C157.637 407.53 157.366 407.747 157.298 408.052L155.785 414.861C155.628 415.567 156.164 416.236 156.887 416.224C159.905 416.173 164.265 415.996 168.058 415.996C172.493 415.996 170.771 416.238 175.971 416.238C179.116 416.238 179.989 413.058 178.672 412.77C172.68 411.46 173.339 411.319 168.161 408.127C167.598 407.779 166.977 407.53 166.316 407.53" fill="#182e35" fill-rule="nonzero" opacity="1" stroke="none" vectornator:layerName="path"/>
<path d="M135.354 146.967C128.175 148.613 122.255 166.941 122.255 166.941L136.672 177.93C136.672 177.93 141.964 172.941 144.319 163.773C146.787 154.167 142.695 145.284 135.354 146.967" fill="#182e35" fill-rule="nonzero" opacity="1" stroke="none" vectornator:layerName="path"/>
<g opacity="0.199997" vectornator:layerName="path">
<clipPath clip-rule="nonzero" id="ClipPath_26">
<path d="M136.033 177.931L144.698 177.931L144.698 160.445L136.033 160.445L136.033 177.931Z"/>
</clipPath>
<g clip-path="url(#ClipPath_26)">
<path d="M141.507 160.445C137.608 164.303 136.335 171.331 136.033 177.44L136.669 177.931C136.669 177.931 141.966 172.936 144.322 163.771C144.468 163.198 144.593 162.624 144.698 162.061L141.507 160.445Z" fill="#000000" fill-rule="nonzero" opacity="1" stroke="none" vectornator:layerName="path"/>
</g>
</g>
<path d="M178.268 147.361C178.268 147.361 186.421 156.57 178.722 213.57L137.75 213.57C137.468 207.281 141.42 176.6 135.354 146.966C135.354 146.966 142.377 145.557 149.069 145.235C154.304 144.982 161.883 144.815 166.486 145.235C172.553 145.789 178.268 147.361 178.268 147.361" fill="#182e35" fill-rule="nonzero" opacity="1" stroke="none" vectornator:layerName="path"/>
<g opacity="0.199997" vectornator:layerName="path">
<clipPath clip-rule="nonzero" id="ClipPath_27">
<path d="M159.072 399.826L167.127 399.826L167.127 390.683L159.072 390.683L159.072 399.826Z"/>
</clipPath>
<g clip-path="url(#ClipPath_27)">
<path d="M167.127 390.683L166.735 399.827L159.072 399.827L159.464 390.683L167.127 390.683Z" fill="#000000" fill-rule="nonzero" opacity="1" stroke="none" vectornator:layerName="path"/>
</g>
</g>
<g opacity="0.199997" vectornator:layerName="path">
<clipPath clip-rule="nonzero" id="ClipPath_28">
<path d="M106.049 398.489L116.545 398.489L116.545 388.352L106.049 388.352L106.049 398.489Z"/>
</clipPath>
<g clip-path="url(#ClipPath_28)">
<path d="M108.85 388.353L116.545 389.974L113.744 398.49L106.049 396.869L108.85 388.353Z" fill="#000000" fill-rule="nonzero" opacity="1" stroke="none" vectornator:layerName="path"/>
</g>
</g>
<path d="M147.587 119.93C149.555 127.273 150.334 131.67 154.865 134.724C161.681 139.317 170.168 134.045 170.433 126.262C170.672 119.257 167.414 108.425 159.534 106.946C151.77 105.488 145.619 112.586 147.587 119.93" fill="#ffc4be" fill-rule="nonzero" opacity="1" stroke="none" vectornator:layerName="path"/>
<path d="M154.907 133.873L154.809 133.873C152.407 133.876 150.145 132.738 148.743 130.787C146.439 127.581 143.212 122.014 142.842 115.583C145.758 112.5 156.733 110.471 161.619 111.583C165.692 112.511 165.1 124.104 161.248 130.366C159.9 132.559 157.48 133.862 154.907 133.873" fill="#ffc4be" fill-rule="nonzero" opacity="1" stroke="none" vectornator:layerName="path"/>
<g opacity="0.800003" vectornator:layerName="path">
<clipPath clip-rule="nonzero" id="ClipPath_29">
<path d="M142.842 133.873L164.416 133.873L164.416 111.275L142.842 111.275L142.842 133.873Z"/>
</clipPath>
<g clip-path="url(#ClipPath_29)">
<path d="M154.907 133.873L154.809 133.873C152.407 133.876 150.145 132.738 148.743 130.787C146.439 127.581 143.212 122.014 142.842 115.583C145.758 112.5 156.733 110.471 161.619 111.583C165.692 112.511 165.1 124.104 161.248 130.366C159.9 132.559 157.48 133.862 154.907 133.873" fill="#182e35" fill-rule="nonzero" opacity="1" stroke="none" vectornator:layerName="path"/>
</g>
</g>
<path d="M147.286 118.194C143.835 117.947 141.883 115.776 141.258 113.917C140.386 111.319 141.314 105.833 146.536 105.667C151.758 105.5 152.314 102.527 150.703 101.917C154.119 102.167 153.036 104.555 153.036 104.555C153.953 104.611 154.814 102.111 160.008 102.305C165.203 102.5 167.786 101.388 167.119 100.222C169.592 100.722 168.897 103.722 166.814 104.527C166.814 104.527 171.758 108.277 172.925 106.222C173.758 107.722 172.119 109.516 165.869 108.702C168.363 112.187 162.461 111.405 159.947 112.989C157.433 114.572 150.737 118.441 147.286 118.194" fill="#182e35" fill-rule="nonzero" opacity="1" stroke="none" vectornator:layerName="path"/>
<path d="M160.081 119.585C160.581 121.513 161.847 123.17 163.172 124.156C165.166 125.639 166.655 124.18 166.513 121.924C166.386 119.893 165.195 116.675 162.996 116.073C160.829 115.48 159.51 117.382 160.081 119.585" fill="#ffc4be" fill-rule="nonzero" opacity="1" stroke="none" vectornator:layerName="path"/>
<path d="M164.188 213.57C164.188 213.57 155.494 272.109 150.722 294.041C145.496 318.056 117.472 397.514 117.472 397.514L103.761 394.546C103.761 394.546 123.356 329.793 127.743 296.217C131.112 270.427 137.75 213.57 137.75 213.57L164.188 213.57Z" fill="#182e35" fill-rule="nonzero" opacity="1" stroke="none" vectornator:layerName="path"/>
<path d="M120.756 392.936C120.815 392.949 118.2 397.895 118.2 397.895L102.773 394.555L104.073 389.917L120.756 392.936Z" fill="#027cff" fill-rule="nonzero" opacity="1" stroke="none" vectornator:layerName="path"/>
<g opacity="0.300003" vectornator:layerName="path">
<clipPath clip-rule="nonzero" id="ClipPath_30">
<path d="M150.158 293.163L160.956 293.163L160.956 234.349L150.158 234.349L150.158 293.163Z"/>
</clipPath>
<g clip-path="url(#ClipPath_30)">
<path d="M158.693 234.428C148.642 236.399 149.705 273.884 150.915 293.163C153.813 279.535 158.057 253.312 160.956 234.699C160.289 234.366 159.538 234.261 158.693 234.428" fill="#000000" fill-rule="nonzero" opacity="1" stroke="none" vectornator:layerName="path"/>
</g>
</g>
<path d="M178.722 213.57C178.722 213.57 179.777 270.842 178.944 294.202C178.077 318.499 169.59 398.055 169.59 398.055L156.614 398.055C156.614 398.055 156.138 319.919 155.56 296.056C154.931 270.042 151.79 213.57 151.79 213.57L178.722 213.57Z" fill="#182e35" fill-rule="nonzero" opacity="1" stroke="none" vectornator:layerName="path"/>
<path d="M172.087 392.887C172.147 392.887 171.355 398.275 171.355 398.275L155.57 398.275L155.143 393.466L172.087 392.887Z" fill="#027cff" fill-rule="nonzero" opacity="1" stroke="none" vectornator:layerName="path"/>
<path d="M178.456 146.346C180.466 147.184 182.395 148.674 182.974 153.619C183.531 158.374 182.453 200.002 181.147 213.295C181.057 214.216 180.386 215.078 179.461 215.118C171.268 215.474 145.897 212.045 137.336 213.552C136.355 213.725 135.475 212.634 135.527 211.632C136.201 198.678 135.231 177.785 133.647 164.507C132.614 155.841 132.606 146.773 139.885 145.231C145.264 144.091 170.636 143.088 178.456 146.346" fill="#f1d244" fill-rule="nonzero" opacity="1" stroke="none" vectornator:layerName="path"/>
<path d="M181.629 157.854C182.086 160.049 182.583 162.444 183.129 164.723C183.691 167.021 184.248 169.313 184.885 171.559C185.51 173.807 186.185 176.02 186.954 178.129C187.703 180.231 188.556 182.275 189.505 183.921C189.964 184.731 190.459 185.46 190.842 185.88C191.028 186.093 191.179 186.225 191.215 186.271C191.22 186.284 191.202 186.358 191.413 186.424C191.768 186.577 192.548 186.708 193.44 186.678C194.338 186.65 195.353 186.535 196.401 186.36C200.611 185.593 205.261 184.039 209.662 182.458L212.573 187.417C208.411 190.645 204.1 193.322 198.846 195.258C197.525 195.736 196.13 196.144 194.587 196.409C193.042 196.663 191.33 196.84 189.274 196.492C188.275 196.334 187.102 195.951 186.024 195.387C184.992 194.822 184.176 194.18 183.476 193.542C182.084 192.256 181.129 190.976 180.271 189.714C177.052 184.672 175.353 179.79 173.76 174.845C173.008 172.375 172.318 169.91 171.745 167.423C171.16 164.917 170.621 162.505 170.193 159.864L181.629 157.854Z" fill="#ffc4be" fill-rule="nonzero" opacity="1" stroke="none" vectornator:layerName="path"/>
<path d="M164.779 154.852C158.557 167.365 173.34 181.503 173.34 181.503L189.82 172.898C189.82 172.898 188.078 162.217 184.19 153.578C179.387 142.905 168.358 147.656 164.779 154.852" fill="#182e35" fill-rule="nonzero" opacity="1" stroke="none" vectornator:layerName="path"/>
<path d="M208.139 183.196L213.729 179.522L216.054 187.884C216.054 187.884 213.545 190.81 208.969 187.62L208.139 183.196Z" fill="#ffc4be" fill-rule="nonzero" opacity="1" stroke="none" vectornator:layerName="path"/>
<path d="M218.598 182.903L218.42 184.657C218.334 185.505 217.925 186.286 217.278 186.839L216.054 187.884L213.729 179.522L214.445 179.338C216.693 178.756 218.832 180.592 218.598 182.903" fill="#ffc4be" fill-rule="nonzero" opacity="1" stroke="none" vectornator:layerName="path"/>
</g>
</g>
</g>
</g>
</svg>
