<svg width="100" height="100" viewBox="0 0 100 100" fill="none" xmlns="http://www.w3.org/2000/svg">
<rect width="100" height="100" rx="8" fill="url(#paint0_linear_155_143)"/>
<path d="M31.92 31.34C35.768 31.34 39.1307 32.12 42.008 33.68C44.92 35.2053 47.156 37.3547 48.716 40.128C50.276 42.9013 51.056 46.0733 51.056 49.644C51.056 53.18 50.2587 56.3347 48.664 59.108C47.104 61.8813 44.868 64.0653 41.956 65.66C39.0787 67.22 35.7333 68 31.92 68H17.412V31.34H31.92ZM31.14 59.004C34.1213 59.004 36.4613 58.1893 38.16 56.56C39.8587 54.9307 40.708 52.6253 40.708 49.644C40.708 46.628 39.8587 44.3053 38.16 42.676C36.4613 41.012 34.1213 40.18 31.14 40.18H27.604V59.004H31.14ZM69.4823 68.364C65.2183 68.364 61.7169 67.3587 58.9783 65.348C56.2396 63.3027 54.7663 60.3907 54.5583 56.612H65.4263C65.5303 57.8947 65.9116 58.8307 66.5703 59.42C67.2289 60.0093 68.0783 60.304 69.1183 60.304C70.0543 60.304 70.8169 60.0787 71.4063 59.628C72.0303 59.1427 72.3423 58.484 72.3423 57.652C72.3423 56.5773 71.8396 55.7453 70.8343 55.156C69.8289 54.5667 68.1996 53.908 65.9463 53.18C63.5543 52.3827 61.6129 51.62 60.1223 50.892C58.6663 50.1293 57.3836 49.0373 56.2743 47.616C55.1996 46.16 54.6623 44.2707 54.6623 41.948C54.6623 39.5907 55.2516 37.58 56.4303 35.916C57.6089 34.2173 59.2383 32.9347 61.3183 32.068C63.3983 31.2013 65.7556 30.768 68.3903 30.768C72.6543 30.768 76.0516 31.7733 78.5823 33.784C81.1476 35.76 82.5169 38.5507 82.6903 42.156H71.6143C71.5796 41.0467 71.2329 40.2147 70.5743 39.66C69.9503 39.1053 69.1356 38.828 68.1303 38.828C67.3676 38.828 66.7436 39.0533 66.2583 39.504C65.7729 39.9547 65.5303 40.596 65.5303 41.428C65.5303 42.1213 65.7903 42.728 66.3103 43.248C66.8649 43.7333 67.5409 44.1667 68.3383 44.548C69.1356 44.8947 70.3143 45.3453 71.8743 45.9C74.1969 46.6973 76.1036 47.4947 77.5943 48.292C79.1196 49.0547 80.4196 50.1467 81.4943 51.568C82.6036 52.9547 83.1583 54.7227 83.1583 56.872C83.1583 59.056 82.6036 61.0147 81.4943 62.748C80.4196 64.4813 78.8423 65.8507 76.7623 66.856C74.7169 67.8613 72.2903 68.364 69.4823 68.364Z" fill="white"/>
<defs>
<linearGradient id="paint0_linear_155_143" x1="100" y1="97" x2="-10" y2="-2.5" gradientUnits="userSpaceOnUse">
<stop stop-color="#FF6A00"/>
<stop offset="1" stop-color="#F59E0B"/>
</linearGradient>
</defs>
</svg>
